PathFileType	4	(X/Y/Z)	C:/Users/beibeiliu/ov580/test_trc/User2\sequence.28_training_dense_left.trc
DataRate	CameraRate	NumFrames	NumMarkers	Units	OrigDataRate	OrigDataStartFrame	OrigNumFrames
120	120	8	19	mm	120	129	256
Frame#	Time	ThumbCMC			ThumbMCP			ThumbIP			ThumbTip			IndexMCP			IndexPIP			IndexTip			MiddleMCP			MiddlePIP			MiddleTip			RingMCP			RingPIP			RingTip			PinkyMCP			PinkyPIP			PinkyTip			BackHand1			BackHand2			BackHand3	
		X0	Y0	Z0	X1	Y1	Z1	X2	Y2	Z2	X3	Y3	Z3	X4	Y4	Z4	X5	Y5	Z5	X6	Y6	Z6	X7	Y7	Z7	X8	Y8	Z8	X9	Y9	Z9	X10	Y10	Z10	X11	Y11	Z11	X12	Y12	Z12	X13	Y13	Z13	X14	Y14	Z14	X15	Y15	Z15	X16	Y16	Z16	X17	Y17	Z17	X18	Y18	Z18	
128	1.06667	-111.054	-40.6042	119.96	-90.4417	-50.857	89.4258	-86.6081	-49.4236	52.2201	-93.3566	-48.4709	26.2483	-97.72	13.341	59.236	-83.8125	22.5056	34.6896	-71.8112	28.7683	13.3732	-113.048	-10.9294	34.2064	-107.147	-44.8332	29.2749	-121.709	-51.8373	66.5929	-132.9	-30.3141	30.4942	-128.395	-57.4985	37.7874	-134.819	-50.9795	76.7067	-153.531	-32.7997	36.8835	-144.255	-64.7677	48.9175	-148.625	-48.6476	79.9598	-161.419	-2.3707	85.2921	-176.288	-11.8921	118.067	-136.977	-5.12873	118.849	
129	1.075	-110.697	-39.7766	115.988	-94.8695	-50.2141	83.781	-92.4845	-49.0071	45.0568	-103.027	-49.4316	24.7575	-102.571	13.0662	55.6576	-93.487	23.1611	26.4994	-87.2875	30.0661	5.21124	-124.578	-10.2436	32.5831	-115.441	-45.0798	27.1196	-124.482	-52.6357	65.1951	-141.534	-31.503	30.4746	-135.261	-59.9161	38.5383	-138.655	-52.5374	75.0647	-161.95	-36.62	35.5679	-146.72	-64.1549	50.0669	-150.436	-49.7228	81.603	-165.728	-2.83652	86.4946	-175.089	-12.2351	119.628	-136.113	-4.84614	114.89	
130	1.08333	-112.962	-38.3509	109.858	-98.214	-49.4483	76.1638	-100.599	-53.7775	40.2421	-112.423	-53.7909	16.5668	-112.387	10.7998	48.2734	-110.498	19.5623	19.8941	-108.574	28.1785	-6.85723	-131.506	-14.4757	28.8017	-126.236	-48.9999	23.3324	-129.052	-55.5139	62.4764	-153.984	-32.7528	31.1697	-139.588	-63.1746	41.5887	-142.812	-52.5743	77.1425	-167.68	-42.4189	37.7227	-153.822	-66.6339	52.1296	-156.856	-52.7893	82.3573	-172.18	-3.23391	82.8699	-178.186	-15.161	118.517	-140.718	-5.8443	113.956	
131	1.09167	-118.53	-39.9596	106.613	-106.726	-52.8496	72.5276	-109.77	-60.0017	38.0865	-125.982	-62.6909	14.6874	-127.636	6.34759	37.3713	-127.63	12.0361	14.4303	-133.153	18.7884	-12.4248	-145.772	-22.2426	23.1594	-138.852	-57.1468	22.4257	-139.229	-58.6592	64.0975	-164.614	-42.8012	31.2674	-153.918	-71.4583	42.5833	-152.725	-59.4735	76.2193	-177.609	-48.1219	41.0621	-164.704	-73.7742	57.0049	-164.551	-56.9636	88.2262	-181.319	-9.62298	84.6251	-180.079	-14.3386	119.918	-146.751	-7.40105	109.515	
132	1.1	-122.617	-37.925	99.9172	-111.453	-55.417	65.7341	-120.681	-64.3685	32.4762	-135.141	-72.1509	13.6106	-145.47	-2.26097	30.7268	-150.735	1.75009	4.92732	-155.374	7.49718	-19.3744	-159.8	-33.0819	19.9794	-152.546	-67.2203	23.1996	-146.136	-63.0265	64.7144	-172.137	-52.4843	30.7814	-161.745	-78.5906	46.5424	-155.133	-62.0787	76.8404	-187.567	-58.3047	44.0764	-169.745	-79.909	62.6688	-170.307	-60.0981	89.1314	-186.627	-15.4622	80.776	-184.701	-17.7556	121.889	-151.321	-5.69673	99.1494	
133	1.10833	-125.443	-35.4826	94.3046	-116.005	-55.5528	65.812	-127.667	-70.5729	34.166	-144.858	-81.1821	11.413	-158.218	-9.91183	25.7271	-167.52	-11.8848	-0.202406	-176.637	-8.72564	-26.853	-172.03	-42.8722	19.8818	-156.246	-74.6436	22.5941	-151.693	-70.5247	62.6375	-187.168	-62.4348	34.1091	-166.166	-84.9192	45.7929	-160.156	-64.5173	77.8369	-197.8	-71.4204	48.1203	-175.871	-89.5382	66.2581	-171.639	-66.7559	88.2514	-196.601	-20.3419	83.2418	-192.583	-19.5338	118.376	-162.815	-8.03437	96.9958	
134	1.11667	-132.456	-32.4147	94.3182	-123.849	-53.6182	62.7611	-130.638	-73.3755	34.7687	-144.798	-88.9928	18.2305	-170.815	-19.1876	21.6277	-177.114	-22.6058	-8.55522	-190.643	-28.7365	-27.8146	-175.893	-52.4033	18.2249	-160.45	-83.5068	22.9648	-147.834	-70.8751	62.0616	-188.568	-73.8108	35.0089	-164.509	-91.7953	49.3398	-163.093	-68.725	80.3209	-196.674	-84.8184	49.4933	-170.114	-91.5669	69.3726	-170.864	-66.8503	89.5841	-204.168	-30.8774	76.1009	-199.252	-20.9378	110.352	-171.023	-7.90875	88.8601	
135	1.125	-136.722	-25.3851	94.1269	-120.42	-48.5088	66.1788	-125.954	-74.2031	37.5779	-136.221	-93.9036	21.3182	-177.567	-28.2683	15.2165	-186.433	-37.1379	-8.834	-197.188	-45.5372	-31.2201	-176.183	-61.3424	19.0949	-153.878	-87.0459	25.3273	-148.565	-72.0319	67.1103	-179.779	-81.1385	35.4184	-159.003	-96.4089	55.7818	-158.109	-69.1994	80.168	-193.664	-87.742	53.5864	-165.125	-95.3288	74.1235	-168.522	-69.9547	93.5749	-207.057	-36.2867	75.2021	-208.409	-29.3636	107.583	-178.773	-10.5745	85.3224	
